<svg xmlns="http://www.w3.org/2000/svg" width="172" height="200" fill="none"><g clip-path="url(#a)"><path fill="#fff" d="M92.89 200v-47.609h5.238L85.153 124.08H70.069v28.311h10.632V200H0v-50.582h14.265V50.33H0V0h121.186l33.58 34.177v55.741l-19.063 19.079 18.591 40.421h16.86v50.645L92.891 200Zm5.757-126.235V50.33H72.192v23.435h26.455Z"/><path fill="#003B71" d="M3.146 3.146v44.039H17.41v105.379H3.146v44.353h74.41v-41.381H66.924v-34.602H87.18l15.855 34.602h-7v41.318h71.973v-44.29h-15.728l-20.353-44.244s17.49-17.474 19.692-19.691V35.467L119.865 3.146H3.145Zm65.9 44.039h32.747V76.91H69.047V47.185Z"/><path fill="#FFD100" d="M9.28 9.28v31.786h14.312v117.569H9.28v32.085h62.142v-29.05H60.79v-46.854h30.324l21.484 46.839h-10.365v29.05h59.768v-32.086h-13.637l-23.797-51.667 20.919-20.919v-48.05L117.285 9.28H9.28Zm53.633 31.786h45.03v41.979h-45.03V41.066Z"/></g><defs><clipPath id="a"><path fill="#fff" d="M0 0h171.154v200H0z"/></clipPath></defs></svg>